<svg width="196" height="198" viewBox="0 0 196 198" fill="none" xmlns="http://www.w3.org/2000/svg">
<g opacity="0.5">
<path d="M165.154 116H71.7915C69.033 116 66.699 114.305 65.8502 111.762L42.2974 34.8405C41.0242 30.8143 43.9949 27 48.2386 27H184.675C193.375 27 196.558 34.4167 195.921 38.231L182.766 101.802C181.068 110.067 173.642 116 165.154 116Z" fill="#888888"/>
<path d="M165.44 122H71.8607C69.0959 122 66.7564 120.305 65.9057 117.762L42.2981 40.8405C41.022 36.8143 43.9995 33 48.2531 33H189.899C193.727 33 196.705 36.6024 195.854 40.2048L182.88 107.59C181.392 116.067 173.948 122 165.44 122Z" fill="#DDDDDD"/>
<path d="M65.6823 32H48.1906C44.1377 32 41.1513 36.0972 42.2179 40.1943L49.0439 62.6209L72.0817 123H90L65.6823 32Z" fill="#CCCCCC"/>
<path d="M175.058 52H49.9091C48.8485 52 48 51.1111 48 50C48 48.8889 48.8485 48 49.9091 48H175.058C176.119 48 176.968 48.8889 176.968 50C177.18 51.1111 176.331 52 175.058 52Z" fill="#CCCCCC"/>
<path d="M172.09 78H50.91C49.8489 78 49 77.1111 49 76C49 74.8889 49.8489 74 50.91 74H172.09C173.151 74 174 74.8889 174 76C174 77.1111 173.151 78 172.09 78Z" fill="#CCCCCC"/>
<path d="M168.857 102H58.9286C57.8571 102 57 101.111 57 100C57 98.8889 57.8571 98 58.9286 98H169.071C170.143 98 171 98.8889 171 100C171 101.111 169.929 102 168.857 102Z" fill="#CCCCCC"/>
<path d="M82.0099 98H63L64.3861 102H83L82.0099 98Z" fill="#888888"/>
<path d="M75.9565 74H53L54.4609 78H77L75.9565 74Z" fill="#888888"/>
<path d="M68 48H50.8C49.8 48 49 48.8889 49 50C49 51.1111 49.8 52 50.8 52H69L68 48Z" fill="#888888"/>
<path d="M176.047 155H69.7383C64.4229 155 59.5327 152.877 55.9182 149.267C51.8785 145.233 49.7523 139.712 50.1776 133.979C50.6028 128.247 53.5794 123.151 58.0444 119.753C58.6822 119.329 59.1075 118.267 58.6822 117.418L26.3645 11.8904H5.95327C2.76402 11.8904 0 9.13014 0 5.94521C0 2.76027 2.76402 0 5.95327 0H30.8294C33.3808 0 35.7196 1.69863 36.5701 4.24658L70.5888 114.021C72.2897 119.753 70.3762 125.911 65.486 129.308C63.5724 130.582 62.5093 132.705 62.2967 134.829C62.0841 137.164 62.9346 139.288 64.4229 140.774C65.9112 142.26 67.8248 143.11 69.7383 143.11H176.047C179.236 143.11 182 145.87 182 149.055C182 152.24 179.449 155 176.047 155Z" fill="#660099"/>
<path d="M176.047 155H69.7383C64.4229 155 59.5327 152.877 55.9182 149.267C51.8785 145.233 49.7523 139.712 50.1776 133.979C50.6028 128.247 53.5794 123.151 58.0444 119.753C58.6822 119.329 59.1075 118.267 58.6822 117.418L26.3645 11.8904H5.95327C2.76402 11.8904 0 9.13014 0 5.94521C0 2.76027 2.76402 0 5.95327 0H30.8294C33.3808 0 35.7196 1.69863 36.5701 4.24658L70.5888 114.021C72.2897 119.753 70.3762 125.911 65.486 129.308C63.5724 130.582 62.5093 132.705 62.2967 134.829C62.0841 137.164 62.9346 139.288 64.4229 140.774C65.9112 142.26 67.8248 143.11 69.7383 143.11H176.047C179.236 143.11 182 145.87 182 149.055C182 152.24 179.449 155 176.047 155Z" fill="#CCCCCC"/>
<path d="M174.582 146.362H67.6076C65.4681 146.362 63.5426 145.505 62.2589 144.006C60.5473 142.292 59.9054 140.15 60.1194 138.008C60.3333 135.652 61.4031 133.725 63.3286 132.439C63.7565 132.011 64.1844 131.797 64.6123 131.369C64.8262 131.154 65.0402 130.94 65.4681 130.512C68.6773 126.871 69.961 121.73 68.4634 117.018L34.2317 6.28373C33.3759 3.71349 31.2364 2 28.4551 2H3.20922C2.35343 2 1.49764 2.21419 0.855792 2.42837C0.427896 3.28512 0 4.35605 0 5.42698C0 8.63978 2.78132 11.4242 5.99054 11.4242H26.5296L59.4775 118.089C59.6915 118.946 59.4775 119.802 58.8357 120.445C57.9799 121.088 57.3381 121.73 56.6962 122.373C56.4823 122.587 56.4823 122.801 56.2683 123.015L56.0544 123.229C53.2731 126.442 51.3475 130.512 51.1336 134.796C50.7057 140.579 52.8452 146.147 56.9102 150.217C60.5473 153.858 65.4681 156 70.8168 156H177.791C178.647 156 179.502 155.786 180.144 155.572C180.572 154.715 181 153.644 181 152.573C180.572 148.932 177.791 146.362 174.582 146.362Z" fill="#888888"/>
<ellipse cx="83.0462" cy="176.779" rx="20.304" ry="20.7789" fill="#888888"/>
<ellipse cx="83.0452" cy="174.568" rx="17.928" ry="18.3474" fill="#DDDDDD"/>
<ellipse cx="83.0435" cy="175.01" rx="8.856" ry="9.06316" fill="#888888"/>
<ellipse cx="83.0518" cy="173.242" rx="8.208" ry="8.4" fill="#CCCCCC"/>
<ellipse cx="159.046" cy="176.779" rx="20.304" ry="20.7789" fill="#888888"/>
<ellipse cx="159.045" cy="174.568" rx="17.928" ry="18.3474" fill="#DDDDDD"/>
<ellipse cx="159.044" cy="175.01" rx="8.856" ry="9.06316" fill="#888888"/>
<ellipse cx="159.052" cy="173.242" rx="8.208" ry="8.4" fill="#CCCCCC"/>
</g>
</svg>
