<svg width="42" height="40" viewBox="0 0 42 40" fill="none" xmlns="http://www.w3.org/2000/svg">
<path d="M21.0002 22.8536C27.3042 22.8536 32.4145 17.7432 32.4145 11.4393C32.4145 5.13532 27.3042 0.0249634 21.0002 0.0249634C14.6963 0.0249634 9.58594 5.13532 9.58594 11.4393C9.58594 17.7432 14.6963 22.8536 21.0002 22.8536Z" fill="#036C70"/>
<path d="M30.5119 32.3655C36.2906 32.3655 40.9751 27.681 40.9751 21.9024C40.9751 16.1238 36.2906 11.4393 30.5119 11.4393C24.7333 11.4393 20.0488 16.1238 20.0488 21.9024C20.0488 27.681 24.7333 32.3655 30.5119 32.3655Z" fill="#1A9BA1"/>
<path d="M22.4269 39.975C26.8922 39.975 30.512 36.3552 30.512 31.8899C30.512 27.4246 26.8922 23.8048 22.4269 23.8048C17.9616 23.8048 14.3418 27.4246 14.3418 31.8899C14.3418 36.3552 17.9616 39.975 22.4269 39.975Z" fill="#37C6D0"/>
<path opacity="0.1" d="M22.9024 10.3264V30.6248C22.8976 31.3301 22.4702 31.9638 21.818 32.2323C21.6103 32.3201 21.3871 32.3654 21.1617 32.3655H14.3511C14.3416 32.2038 14.3416 32.0516 14.3416 31.8899C14.3385 31.7311 14.3448 31.5723 14.3607 31.4143C14.5347 28.3738 16.4079 25.6911 19.2022 24.4801V22.7109C12.9832 21.7254 8.74065 15.885 9.72616 9.66599C9.733 9.62292 9.74006 9.57987 9.74739 9.53688C9.79474 9.21608 9.86144 8.89844 9.94714 8.58569H21.1617C22.1215 8.58935 22.8987 9.36655 22.9024 10.3264Z" fill="#660099"/>
<path opacity="0.2" d="M20.2107 9.5369H9.74758C8.6906 15.7447 12.8661 21.6339 19.0739 22.6909C19.2619 22.7229 19.4506 22.7502 19.64 22.7727C16.6913 24.171 14.5425 28.1422 14.3599 31.4143C14.3441 31.5723 14.3377 31.7311 14.3409 31.8899C14.3409 32.0516 14.3409 32.2038 14.3504 32.3655C14.3675 32.6852 14.4089 33.0032 14.474 33.3167H20.2097C20.915 33.312 21.5487 32.8845 21.8172 32.2323C21.9051 32.0247 21.9503 31.8015 21.9504 31.576V11.2776C21.9468 10.3181 21.1702 9.54108 20.2107 9.5369Z" fill="#660099"/>
<path opacity="0.2" d="M20.2106 9.5369H9.74749C8.69075 15.7453 12.8669 21.6348 19.0753 22.6915C19.2023 22.7131 19.3296 22.7326 19.4573 22.7499C16.6037 24.249 14.5396 28.2107 14.3608 31.4143H20.2106C21.1689 31.4071 21.944 30.632 21.9513 29.6736V11.2776C21.9476 10.3177 21.1704 9.54055 20.2106 9.5369Z" fill="#660099"/>
<path opacity="0.2" d="M19.2591 9.5369H9.74718C8.74933 15.3976 12.4217 21.0416 18.1843 22.5035C16.0023 24.9965 14.664 28.1153 14.3605 31.4143H19.2591C20.2189 31.4107 20.9961 30.6335 20.9998 29.6736V11.2776C20.9993 10.3165 20.2202 9.53743 19.2591 9.5369Z" fill="#660099"/>
<path d="M1.81678 9.5369H19.2559C20.2189 9.5369 20.9995 10.3175 20.9995 11.2804V28.7196C20.9995 29.6825 20.2189 30.4631 19.2559 30.4631H1.81678C0.853849 30.4631 0.0732422 29.6825 0.0732422 28.7196V11.2804C0.0732422 10.3175 0.853849 9.5369 1.81678 9.5369Z" fill="url(#paint0_linear_33_8398)"/>
<path d="M7.86102 19.7869C7.45241 19.5159 7.11112 19.1551 6.86321 18.732C6.623 18.2898 6.50327 17.7922 6.51602 17.2891C6.49462 16.6079 6.7245 15.9426 7.16187 15.42C7.62148 14.8967 8.21557 14.5092 8.87972 14.2995C9.63666 14.0503 10.4295 13.9276 11.2263 13.9361C12.2742 13.8979 13.3206 14.0444 14.3177 14.3689V16.5567C13.8844 16.2942 13.4126 16.1016 12.9194 15.986C12.3843 15.8547 11.8353 15.7889 11.2843 15.79C10.7034 15.7687 10.1261 15.8909 9.60357 16.1458C9.40619 16.2309 9.238 16.3719 9.1197 16.5513C9.0014 16.7308 8.93815 16.941 8.93774 17.1559C8.9361 17.4224 9.03848 17.679 9.2231 17.8712C9.44116 18.0978 9.69912 18.2823 9.98406 18.4153C10.3011 18.5732 10.7767 18.7831 11.4108 19.045C11.4807 19.0671 11.5487 19.0944 11.6144 19.1268C12.2385 19.3707 12.8406 19.6676 13.4141 20.0143C13.8483 20.2821 14.2128 20.6491 14.4775 21.0853C14.7489 21.5798 14.8804 22.1388 14.858 22.7024C14.8889 23.4017 14.675 24.09 14.253 24.6485C13.8324 25.162 13.2701 25.5404 12.636 25.7367C11.8902 25.9704 11.1118 26.0834 10.3303 26.0715C9.62912 26.0746 8.92899 26.0174 8.23767 25.9003C7.65394 25.8047 7.08429 25.6373 6.5417 25.4018V23.0952C7.06036 23.4656 7.6398 23.7425 8.25385 23.9132C8.86582 24.1039 9.50199 24.2058 10.1429 24.2157C10.7361 24.2533 11.3283 24.1276 11.8551 23.8523C12.0362 23.7501 12.1862 23.6007 12.289 23.4199C12.3919 23.2392 12.4437 23.0339 12.4391 22.826C12.4403 22.6801 12.4123 22.5354 12.3568 22.4005C12.3013 22.2656 12.2193 22.1431 12.1157 22.0403C11.8555 21.7849 11.5542 21.5749 11.2244 21.4192C10.844 21.2289 10.2837 20.9782 9.54368 20.6668C8.95497 20.4301 8.39129 20.1354 7.86102 19.7869Z" fill="white"/>
<defs>
<linearGradient id="paint0_linear_33_8398" x1="3.70855" y1="8.17455" x2="17.3642" y2="31.8255" gradientUnits="userSpaceOnUse">
<stop stop-color="#058F92"/>
<stop offset="0.5" stop-color="#038489"/>
<stop offset="1" stop-color="#026D71"/>
</linearGradient>
</defs>
</svg>
